PathFileType	3	(X/Y/Z)	running_2__fused_aligned.trc
DataRate	CameraRate	NumFrames	NumMarkers	Units	OrigDataRate	OrigDataStartFrame	OrigNumFrames
100.0	100.0	17	19	mm	100.0	2635	6395
Frame#	Time	pelvis			neck			head			hip_left			hip_right			knee_left			knee_right			ankle_left			ankle_right			heel_left			heel_right			toe_left			toe_right			shoulder_left			shoulder_right			elbow_left			elbow_right			wrist_left			wrist_right			
		X1	Y1	Z1	X2	Y2	Z2	X3	Y3	Z3	X4	Y4	Z4	X5	Y5	Z5	X6	Y6	Z6	X7	Y7	Z7	X8	Y8	Z8	X9	Y9	Z9	X10	Y10	Z10	X11	Y11	Z11	X12	Y12	Z12	X13	Y13	Z13	X14	Y14	Z14	X15	Y15	Z15	X16	Y16	Z16	X17	Y17	Z17	X18	Y18	Z18	X19	Y19	Z19	
2635	26.34000	86.577127	946.711117	200.196775	71.885595	1488.872630	336.290054	87.622539	1571.052748	485.296927	161.309465	949.802871	195.671492	11.844604	943.619372	204.722057	179.418857	539.727536	326.964966	-35.928498	516.680708	239.884840	176.631568	139.675133	233.991259	-66.456590	251.697080	-50.950181	174.115398	91.637037	196.300716	-64.416132	242.240334	-105.390461	173.419822	79.046169	422.025846	-81.126520	91.060701	27.127673	229.593970	1468.660338	263.416213	-98.156489	1439.208215	315.697885	315.981605	1248.408940	125.848089	-180.550941	1189.603758	238.244202	294.957340	1135.919064	322.759287	-62.904745	1108.155743	414.547074
2636	26.35000	87.765279	948.264622	200.127341	72.865393	1490.567688	336.854015	88.412906	1572.709064	485.694644	162.548281	951.438048	195.688558	12.982060	945.091212	204.566101	180.002725	541.003631	321.327408	-35.188319	518.446163	241.637204	177.366011	137.553044	230.524936	-66.078006	253.077390	-45.183357	174.789941	88.852132	192.829609	-64.072619	243.471681	-99.175373	174.634038	77.391054	420.848835	-80.752010	93.501901	32.936623	230.968713	1470.304299	265.324167	-97.074690	1441.473798	315.174119	319.204976	1250.080236	130.290693	-180.786759	1193.853303	234.863659	293.336115	1139.776630	326.233801	-65.705990	1109.287463	409.901009
2637	26.36000	88.953430	949.818126	200.057906	73.845192	1492.262746	337.417976	89.203274	1574.365380	486.092361	163.787097	953.073225	195.705624	14.119517	946.563052	204.410145	180.586593	542.279726	315.689850	-34.448141	520.211618	243.389568	178.100455	135.430955	227.058612	-65.699423	254.457700	-39.416534	175.464484	86.067227	189.358501	-63.729105	244.703028	-92.960285	175.848254	75.735939	419.671824	-80.377501	95.943102	38.745573	232.343456	1471.948260	267.232120	-95.992891	1443.739381	314.650353	322.428347	1251.751532	134.733297	-181.022576	1198.102847	231.483116	291.714889	1143.634197	329.708314	-68.507236	1110.419183	405.254945
2638	26.37000	88.368367	949.871231	200.575583	72.673050	1492.318575	338.171437	87.479842	1574.596279	486.760840	163.187768	953.108946	196.053480	13.548729	946.633535	205.097663	180.184984	541.204813	308.058799	-33.816198	521.315741	249.400248	176.253877	136.982118	215.463345	-65.658586	252.943943	-26.811854	173.095931	88.583763	177.569610	-63.992121	242.357437	-79.685833	175.000042	74.817220	404.397330	-79.164920	97.310181	53.251437	231.827183	1472.131985	269.716289	-96.979215	1443.940631	313.656080	324.139589	1251.642536	139.814679	-182.639113	1199.771751	227.029039	288.624945	1144.689705	334.575343	-73.758476	1106.960428	399.696544
2639	26.38000	87.783304	949.924336	201.093259	71.500907	1492.374403	338.924899	85.756411	1574.827178	487.429318	162.588439	953.144668	196.401336	12.977940	946.704017	205.785181	179.783376	540.129901	300.427748	-33.184256	522.419863	255.410927	174.407300	138.533281	203.868077	-65.617749	251.430186	-14.207174	170.727378	91.100299	165.780719	-64.255136	240.011846	-66.411380	174.151830	73.898502	389.122836	-77.952339	98.677261	67.757301	231.310909	1472.315711	272.200458	-97.965540	1444.141881	312.661807	325.850830	1251.533540	144.896061	-184.255649	1201.440655	222.574961	285.535002	1145.745213	339.442372	-79.009716	1103.501674	394.138143
2640	26.39000	87.198241	949.977441	201.610936	70.328765	1492.430232	339.678360	84.032980	1575.058077	488.097797	161.989110	953.180390	196.749192	12.407152	946.774500	206.472698	179.381767	539.054988	292.796697	-32.552313	523.523986	261.421607	172.560722	140.084444	192.272810	-65.576912	249.916428	-1.602494	168.358825	93.616835	153.991828	-64.518151	237.666255	-53.136928	173.303618	72.979783	373.848343	-76.739758	100.044340	82.263166	230.794636	1472.499437	274.684627	-98.951865	1444.343131	311.667534	327.562072	1251.424543	149.977443	-185.872185	1203.109559	218.120884	282.445059	1146.800722	344.309401	-84.260956	1100.042920	388.579741
2641	26.40000	86.613178	950.030546	202.128612	69.156622	1492.486060	340.431822	82.309549	1575.288975	488.766275	161.389781	953.216112	197.097049	11.836364	946.844982	207.160216	178.980158	537.980076	285.165646	-31.920371	524.628108	267.432286	170.714144	141.635607	180.677543	-65.536074	248.402671	11.002186	165.990271	96.133371	142.202937	-64.781166	235.320664	-39.862476	172.455406	72.061064	358.573849	-75.527177	101.411420	96.769030	230.278362	1472.683163	277.168796	-99.938190	1444.544381	310.673262	329.273313	1251.315547	155.058825	-187.488722	1204.778463	213.666807	279.355116	1147.856230	349.176429	-89.512196	1096.584165	383.021340
2642	26.41000	86.028115	950.083651	202.646288	67.984480	1492.541889	341.185283	80.586118	1575.519874	489.434754	160.790452	953.251833	197.444905	11.265576	946.915465	207.847734	178.578550	536.905164	277.534595	-31.288429	525.732231	273.442966	168.867567	143.186770	169.082276	-65.495237	246.888914	23.606865	163.621718	98.649907	130.414047	-65.044181	232.975073	-26.588024	171.607194	71.142345	343.299355	-74.314596	102.778500	111.274894	229.762089	1472.866888	279.652965	-100.924514	1444.745631	309.678989	330.984555	1251.206551	160.140207	-189.105258	1206.447367	209.212730	276.265172	1148.911738	354.043458	-94.763436	1093.125411	377.462939
2643	26.42000	85.443052	950.136756	203.163965	66.812337	1492.597718	341.938745	78.862686	1575.750773	490.103232	160.191123	953.287555	197.792761	10.694788	946.985948	208.535252	178.176941	535.830251	269.903544	-30.656486	526.836353	279.453646	167.020989	144.737933	157.487009	-65.454400	245.375157	36.211545	161.253165	101.166443	118.625156	-65.307196	230.629482	-13.313571	170.758981	70.223627	328.024861	-73.102016	104.145579	125.780758	229.245816	1473.050614	282.137133	-101.910839	1444.946880	308.684716	332.695796	1251.097555	165.221589	-190.721794	1208.116272	204.758653	273.175229	1149.967247	358.910487	-100.014676	1089.666656	371.904538
2644	26.43000	84.857988	950.189861	203.681641	65.640195	1492.653546	342.692206	77.139255	1575.981672	490.771711	159.591795	953.323277	198.140617	10.123999	947.056430	209.222770	177.775332	534.755339	262.272494	-30.024544	527.940475	285.464325	165.174411	146.289096	145.891742	-65.413563	243.861400	48.816225	158.884612	103.682979	106.836265	-65.570211	228.283891	-0.039119	169.910769	69.304908	312.750368	-71.889435	105.512659	140.286623	228.729542	1473.234340	284.621302	-102.897164	1445.148130	307.690443	334.407038	1250.988559	170.302971	-192.338331	1209.785176	200.304575	270.085286	1151.022755	363.777516	-105.265915	1086.207902	366.346137
2645	26.44000	84.272925	950.242965	204.199318	64.468052	1492.709375	343.445668	75.415824	1576.212571	491.440189	158.992466	953.358999	198.488473	9.553211	947.126913	209.910288	177.373724	533.680426	254.641443	-29.392602	529.044598	291.475005	163.327834	147.840260	134.296475	-65.372726	242.347642	61.420905	156.516059	106.199515	95.047374	-65.833227	225.938300	13.235333	169.062557	68.386189	297.475874	-70.676854	106.879738	154.792487	228.213269	1473.418065	287.105471	-103.883489	1445.349380	306.696170	336.118279	1250.879563	175.384353	-193.954867	1211.454080	195.850498	266.995342	1152.078263	368.644545	-110.517155	1082.749148	360.787736
2646	26.45000	83.687862	950.296070	204.716994	63.295910	1492.765203	344.199129	73.692393	1576.443469	492.108668	158.393137	953.394721	198.836330	8.982423	947.197396	210.597806	176.972115	532.605514	247.010392	-28.760659	530.148720	297.485685	161.481256	149.391423	122.701208	-65.331889	240.833885	74.025585	154.147506	108.716051	83.258483	-66.096242	223.592709	26.509785	168.214345	67.467470	282.201380	-69.464273	108.246818	169.298351	227.696995	1473.601791	289.589640	-104.869814	1445.550630	305.701897	337.829521	1250.770567	180.465735	-195.571403	1213.122984	191.396421	263.905399	1153.133772	373.511573	-115.768395	1079.290393	355.229335
2647	26.46000	83.102799	950.349175	205.234671	62.123767	1492.821032	344.952591	71.968961	1576.674368	492.777147	157.793808	953.430442	199.184186	8.411635	947.267878	211.285324	176.570506	531.530601	239.379341	-28.128717	531.252843	303.496364	159.634678	150.942586	111.105940	-65.291051	239.320128	86.630265	151.778953	111.232587	71.469592	-66.359257	221.247118	39.784237	167.366133	66.548752	266.926887	-68.251692	109.613897	183.804215	227.180722	1473.785517	292.073809	-105.856138	1445.751880	304.707624	339.540762	1250.661571	185.547117	-197.187940	1214.791888	186.942344	260.815456	1154.189280	378.378602	-121.019635	1075.831639	349.670934
2648	26.47000	81.894449	949.538824	204.380259	59.799589	1491.975124	344.368395	69.018251	1575.491015	492.376066	156.610180	952.583750	198.299612	7.178578	946.493868	210.461057	175.647829	529.879764	234.403265	-27.415853	530.789047	308.629171	157.837646	155.640854	96.319007	-63.124468	235.340142	97.874088	149.689033	117.750681	55.893040	-64.256962	216.098656	51.634565	165.993734	66.083905	246.676572	-65.276437	109.105429	198.250755	225.442543	1473.458355	292.649859	-108.119585	1444.552318	302.749188	339.482151	1250.261893	186.900675	-199.839245	1214.248975	183.046695	259.522046	1152.913735	379.110991	-126.337180	1072.375209	346.042804
2649	26.48000	80.686099	948.728473	203.525846	57.475410	1491.129215	343.784199	66.067540	1574.307662	491.974985	155.426552	951.737058	197.415038	5.945521	945.719858	209.636789	174.725151	528.228927	229.427190	-26.702989	530.325252	313.761978	156.040614	160.339122	81.532074	-60.957885	231.360157	109.117912	147.599114	124.268776	40.316487	-62.154668	210.950194	63.484893	164.621334	65.619058	226.426257	-62.301183	108.596960	212.697295	223.704365	1473.131193	293.225910	-110.383032	1443.352755	300.790753	339.423540	1249.862215	188.254233	-202.490550	1213.706062	179.151045	258.228637	1151.638190	379.843380	-131.654726	1068.918780	342.414674
2650	26.49000	79.477749	947.918122	202.671434	55.151232	1490.283307	343.200003	63.116830	1573.124309	491.573904	154.242924	950.890365	196.530464	4.712463	944.945848	208.812522	173.802473	526.578089	224.451115	-25.990125	529.861457	318.894784	154.243582	165.037390	66.745141	-58.791302	227.380171	120.361736	145.509194	130.786871	24.739935	-60.052374	205.801732	75.335220	163.248935	65.154211	206.175942	-59.325929	108.088492	227.143834	221.966186	1472.804031	293.801960	-112.646479	1442.153192	298.832317	339.364930	1249.462537	189.607792	-205.141856	1213.163149	175.255396	256.935227	1150.362645	380.575768	-136.972271	1065.462350	338.786544
2651	26.50000	78.269399	947.107771	201.817022	52.827054	1489.437399	342.615807	60.166119	1571.940956	491.172823	153.059297	950.043673	195.645890	3.479406	944.171838	207.988254	172.879795	524.927252	219.475039	-25.277261	529.397662	324.027591	152.446550	169.735659	51.958208	-56.624718	223.400185	131.605559	143.419275	137.304965	9.163382	-57.950079	200.653270	87.185548	161.876536	64.689365	185.925627	-56.350674	107.580023	241.590374	220.228008	1472.476869	294.378011	-114.909926	1440.953630	296.873882	339.306319	1249.062859	190.961350	-207.793161	1212.620236	171.359746	255.641818	1149.087100	381.308157	-142.289816	1062.005921	335.158413
